<mxfile host="app.diagrams.net" modified="2023-07-12T02:16:59.921Z" agent="Mozilla/5.0 (Windows NT 10.0; Win64; x64) AppleWebKit/537.36 (KHTML, like Gecko) Chrome/114.0.0.0 Safari/537.36" etag="yefY2-TY17B4Fs-sGkLo" version="21.6.1" type="device">
  <diagram name="Page-1" id="LNPsIEWc0G-XSbIO982r">
    <mxGraphModel dx="2074" dy="1148" grid="1" gridSize="10" guides="1" tooltips="1" connect="1" arrows="1" fold="1" page="1" pageScale="1" pageWidth="850" pageHeight="1100" math="0" shadow="0">
      <root>
        <mxCell id="0" />
        <mxCell id="1" parent="0" />
        <mxCell id="M1DWvYW75hTVUkg5Gfjc-26" value="" style="rounded=1;whiteSpace=wrap;html=1;fillColor=#dae8fc;strokeColor=#6c8ebf;" parent="1" vertex="1">
          <mxGeometry x="205" y="320" width="615" height="340" as="geometry" />
        </mxCell>
        <mxCell id="M1DWvYW75hTVUkg5Gfjc-1" value="" style="whiteSpace=wrap;html=1;aspect=fixed;rounded=1;fillColor=#f5f5f5;strokeColor=#666666;fontColor=#333333;" parent="1" vertex="1">
          <mxGeometry x="240" y="460" width="120" height="120" as="geometry" />
        </mxCell>
        <mxCell id="M1DWvYW75hTVUkg5Gfjc-2" value="" style="shape=image;html=1;verticalAlign=top;verticalLabelPosition=bottom;labelBackgroundColor=#ffffff;imageAspect=0;aspect=fixed;image=https://cdn2.iconfinder.com/data/icons/boxicons-logos/24/bxl-spring-boot-128.png" parent="1" vertex="1">
          <mxGeometry x="305" y="477.5" width="40" height="40" as="geometry" />
        </mxCell>
        <mxCell id="M1DWvYW75hTVUkg5Gfjc-4" value="Redis Job Queue" style="rounded=1;whiteSpace=wrap;html=1;fillColor=#f8cecc;strokeColor=#b85450;" parent="1" vertex="1">
          <mxGeometry x="260" y="600" width="80" height="30" as="geometry" />
        </mxCell>
        <mxCell id="M1DWvYW75hTVUkg5Gfjc-3" value="" style="image;sketch=0;aspect=fixed;html=1;points=[];align=center;fontSize=12;image=img/lib/mscae/Cache_Redis_Product.svg;" parent="1" vertex="1">
          <mxGeometry x="325" y="615" width="35.71" height="30" as="geometry" />
        </mxCell>
        <mxCell id="M1DWvYW75hTVUkg5Gfjc-5" value="" style="shape=image;html=1;verticalAlign=top;verticalLabelPosition=bottom;labelBackgroundColor=#ffffff;imageAspect=0;aspect=fixed;image=https://cdn1.iconfinder.com/data/icons/unicons-line-vol-3/24/docker-128.png" parent="1" vertex="1">
          <mxGeometry x="240" y="610" width="45" height="45" as="geometry" />
        </mxCell>
        <mxCell id="M1DWvYW75hTVUkg5Gfjc-6" value="" style="shape=image;html=1;verticalAlign=top;verticalLabelPosition=bottom;labelBackgroundColor=#ffffff;imageAspect=0;aspect=fixed;image=https://cdn1.iconfinder.com/data/icons/unicons-line-vol-3/24/docker-128.png" parent="1" vertex="1">
          <mxGeometry x="250" y="470" width="55" height="55" as="geometry" />
        </mxCell>
        <mxCell id="M1DWvYW75hTVUkg5Gfjc-11" value="" style="shape=flexArrow;endArrow=classic;startArrow=classic;html=1;rounded=0;" parent="1" edge="1">
          <mxGeometry width="100" height="100" relative="1" as="geometry">
            <mxPoint x="110" y="520" as="sourcePoint" />
            <mxPoint x="230" y="520" as="targetPoint" />
          </mxGeometry>
        </mxCell>
        <mxCell id="M1DWvYW75hTVUkg5Gfjc-13" value="" style="sketch=0;outlineConnect=0;fontColor=#232F3E;gradientColor=none;fillColor=#232F3D;strokeColor=none;dashed=0;verticalLabelPosition=bottom;verticalAlign=top;align=center;html=1;fontSize=12;fontStyle=0;aspect=fixed;pointerEvents=1;shape=mxgraph.aws4.client;" parent="1" vertex="1">
          <mxGeometry x="30" y="480" width="78" height="76" as="geometry" />
        </mxCell>
        <mxCell id="M1DWvYW75hTVUkg5Gfjc-14" value="" style="endArrow=classic;startArrow=classic;html=1;rounded=0;entryX=0.25;entryY=0.917;entryDx=0;entryDy=0;entryPerimeter=0;exitX=0.25;exitY=0;exitDx=0;exitDy=0;" parent="1" source="M1DWvYW75hTVUkg5Gfjc-4" target="M1DWvYW75hTVUkg5Gfjc-1" edge="1">
          <mxGeometry width="50" height="50" relative="1" as="geometry">
            <mxPoint x="150" y="680" as="sourcePoint" />
            <mxPoint x="200" y="630" as="targetPoint" />
          </mxGeometry>
        </mxCell>
        <mxCell id="M1DWvYW75hTVUkg5Gfjc-15" value="" style="endArrow=classic;startArrow=classic;html=1;rounded=0;exitX=0.25;exitY=0;exitDx=0;exitDy=0;entryX=0.75;entryY=0.917;entryDx=0;entryDy=0;entryPerimeter=0;" parent="1" target="M1DWvYW75hTVUkg5Gfjc-1" edge="1">
          <mxGeometry width="50" height="50" relative="1" as="geometry">
            <mxPoint x="320" y="600" as="sourcePoint" />
            <mxPoint x="310" y="570" as="targetPoint" />
          </mxGeometry>
        </mxCell>
        <mxCell id="M1DWvYW75hTVUkg5Gfjc-17" value="Clients" style="text;html=1;strokeColor=none;fillColor=none;align=center;verticalAlign=middle;whiteSpace=wrap;rounded=0;" parent="1" vertex="1">
          <mxGeometry x="39" y="555" width="60" height="30" as="geometry" />
        </mxCell>
        <mxCell id="M1DWvYW75hTVUkg5Gfjc-18" value="REST API" style="text;html=1;strokeColor=none;fillColor=none;align=center;verticalAlign=middle;whiteSpace=wrap;rounded=0;fontStyle=1" parent="1" vertex="1">
          <mxGeometry x="140" y="524" width="60" height="32" as="geometry" />
        </mxCell>
        <mxCell id="M1DWvYW75hTVUkg5Gfjc-19" value="" style="rounded=1;whiteSpace=wrap;html=1;fillColor=#f5f5f5;strokeColor=#666666;fontColor=#333333;" parent="1" vertex="1">
          <mxGeometry x="530" y="372" width="250" height="180" as="geometry" />
        </mxCell>
        <mxCell id="M1DWvYW75hTVUkg5Gfjc-20" value="Worker Node 1" style="text;html=1;strokeColor=none;fillColor=none;align=center;verticalAlign=middle;whiteSpace=wrap;rounded=0;" parent="1" vertex="1">
          <mxGeometry x="550" y="382" width="60" height="30" as="geometry" />
        </mxCell>
        <mxCell id="M1DWvYW75hTVUkg5Gfjc-21" value="" style="rounded=1;whiteSpace=wrap;html=1;fillColor=#f5f5f5;strokeColor=#666666;fontColor=#333333;" parent="1" vertex="1">
          <mxGeometry x="530" y="580" width="250" height="60" as="geometry" />
        </mxCell>
        <mxCell id="M1DWvYW75hTVUkg5Gfjc-22" value="Worker Node X" style="text;html=1;strokeColor=none;fillColor=none;align=center;verticalAlign=middle;whiteSpace=wrap;rounded=0;" parent="1" vertex="1">
          <mxGeometry x="545" y="595" width="60" height="30" as="geometry" />
        </mxCell>
        <mxCell id="M1DWvYW75hTVUkg5Gfjc-24" value="" style="sketch=0;html=1;dashed=0;whitespace=wrap;fillColor=#2875E2;strokeColor=#ffffff;points=[[0.005,0.63,0],[0.1,0.2,0],[0.9,0.2,0],[0.5,0,0],[0.995,0.63,0],[0.72,0.99,0],[0.5,1,0],[0.28,0.99,0]];verticalLabelPosition=bottom;align=center;verticalAlign=top;shape=mxgraph.kubernetes.icon;prIcon=node" parent="1" vertex="1">
          <mxGeometry x="750" y="360" width="50" height="48" as="geometry" />
        </mxCell>
        <mxCell id="M1DWvYW75hTVUkg5Gfjc-25" value="" style="sketch=0;html=1;dashed=0;whitespace=wrap;fillColor=#2875E2;strokeColor=#ffffff;points=[[0.005,0.63,0],[0.1,0.2,0],[0.9,0.2,0],[0.5,0,0],[0.995,0.63,0],[0.72,0.99,0],[0.5,1,0],[0.28,0.99,0]];verticalLabelPosition=bottom;align=center;verticalAlign=top;shape=mxgraph.kubernetes.icon;prIcon=node" parent="1" vertex="1">
          <mxGeometry x="760" y="562" width="50" height="48" as="geometry" />
        </mxCell>
        <mxCell id="M1DWvYW75hTVUkg5Gfjc-27" value="Kubernetes Cluster" style="text;html=1;strokeColor=none;fillColor=none;align=center;verticalAlign=middle;whiteSpace=wrap;rounded=0;fontStyle=1" parent="1" vertex="1">
          <mxGeometry x="240" y="320" width="122.5" height="30" as="geometry" />
        </mxCell>
        <mxCell id="M1DWvYW75hTVUkg5Gfjc-28" value="Worker Pod" style="rounded=1;whiteSpace=wrap;html=1;fillColor=#1ba1e2;strokeColor=#006EAF;fontColor=#ffffff;" parent="1" vertex="1">
          <mxGeometry x="572" y="424" width="50" height="50" as="geometry" />
        </mxCell>
        <mxCell id="M1DWvYW75hTVUkg5Gfjc-29" value="Worker Pod" style="rounded=1;whiteSpace=wrap;html=1;fillColor=#1ba1e2;strokeColor=#006EAF;fontColor=#ffffff;" parent="1" vertex="1">
          <mxGeometry x="632" y="424" width="50" height="50" as="geometry" />
        </mxCell>
        <mxCell id="M1DWvYW75hTVUkg5Gfjc-30" value="Worker Pod" style="rounded=1;whiteSpace=wrap;html=1;fillColor=#1ba1e2;strokeColor=#006EAF;fontColor=#ffffff;" parent="1" vertex="1">
          <mxGeometry x="692" y="424" width="50" height="50" as="geometry" />
        </mxCell>
        <mxCell id="M1DWvYW75hTVUkg5Gfjc-34" value="" style="shape=image;html=1;verticalAlign=top;verticalLabelPosition=bottom;labelBackgroundColor=#ffffff;imageAspect=0;aspect=fixed;image=https://cdn1.iconfinder.com/data/icons/unicons-line-vol-3/24/docker-128.png" parent="1" vertex="1">
          <mxGeometry x="560" y="412" width="30" height="30" as="geometry" />
        </mxCell>
        <mxCell id="M1DWvYW75hTVUkg5Gfjc-35" value="" style="shape=image;html=1;verticalAlign=top;verticalLabelPosition=bottom;labelBackgroundColor=#ffffff;imageAspect=0;aspect=fixed;image=https://cdn1.iconfinder.com/data/icons/unicons-line-vol-3/24/docker-128.png" parent="1" vertex="1">
          <mxGeometry x="622" y="412" width="30" height="30" as="geometry" />
        </mxCell>
        <mxCell id="M1DWvYW75hTVUkg5Gfjc-38" value="" style="shape=image;html=1;verticalAlign=top;verticalLabelPosition=bottom;labelBackgroundColor=#ffffff;imageAspect=0;aspect=fixed;image=https://cdn1.iconfinder.com/data/icons/unicons-line-vol-3/24/docker-128.png" parent="1" vertex="1">
          <mxGeometry x="685" y="412" width="30" height="30" as="geometry" />
        </mxCell>
        <mxCell id="M1DWvYW75hTVUkg5Gfjc-39" value="Kubelet" style="rounded=1;whiteSpace=wrap;html=1;fillColor=#1ba1e2;fontColor=#ffffff;strokeColor=#006EAF;" parent="1" vertex="1">
          <mxGeometry x="572" y="500" width="78" height="30" as="geometry" />
        </mxCell>
        <mxCell id="M1DWvYW75hTVUkg5Gfjc-40" value="Kube-proxy" style="rounded=1;whiteSpace=wrap;html=1;fillColor=#1ba1e2;fontColor=#ffffff;strokeColor=#006EAF;" parent="1" vertex="1">
          <mxGeometry x="664" y="500" width="78" height="30" as="geometry" />
        </mxCell>
        <mxCell id="M1DWvYW75hTVUkg5Gfjc-41" value="" style="image;sketch=0;aspect=fixed;html=1;points=[];align=center;fontSize=12;image=img/lib/mscae/Kubernetes.svg;" parent="1" vertex="1">
          <mxGeometry x="190" y="290" width="50" height="48" as="geometry" />
        </mxCell>
        <mxCell id="M1DWvYW75hTVUkg5Gfjc-42" value="" style="endArrow=classic;startArrow=classic;html=1;rounded=0;exitX=1;exitY=0.25;exitDx=0;exitDy=0;entryX=0.008;entryY=0.317;entryDx=0;entryDy=0;entryPerimeter=0;" parent="1" source="M1DWvYW75hTVUkg5Gfjc-1" target="M1DWvYW75hTVUkg5Gfjc-19" edge="1">
          <mxGeometry width="50" height="50" relative="1" as="geometry">
            <mxPoint x="480" y="447" as="sourcePoint" />
            <mxPoint x="530" y="397" as="targetPoint" />
          </mxGeometry>
        </mxCell>
        <mxCell id="M1DWvYW75hTVUkg5Gfjc-43" value="" style="endArrow=classic;startArrow=classic;html=1;rounded=0;entryX=0;entryY=0.5;entryDx=0;entryDy=0;" parent="1" target="M1DWvYW75hTVUkg5Gfjc-21" edge="1">
          <mxGeometry width="50" height="50" relative="1" as="geometry">
            <mxPoint x="360" y="550" as="sourcePoint" />
            <mxPoint x="410" y="500" as="targetPoint" />
          </mxGeometry>
        </mxCell>
        <mxCell id="M1DWvYW75hTVUkg5Gfjc-44" value="PostgreSQL Job Status Store" style="rounded=1;whiteSpace=wrap;html=1;fillColor=#f8cecc;strokeColor=#b85450;" parent="1" vertex="1">
          <mxGeometry x="260" y="380" width="80" height="57" as="geometry" />
        </mxCell>
        <mxCell id="M1DWvYW75hTVUkg5Gfjc-45" value="" style="image;aspect=fixed;html=1;points=[];align=center;fontSize=12;image=img/lib/azure2/databases/Azure_Database_PostgreSQL_Server.svg;" parent="1" vertex="1">
          <mxGeometry x="330" y="350" width="30" height="40" as="geometry" />
        </mxCell>
        <mxCell id="M1DWvYW75hTVUkg5Gfjc-47" value="..." style="rounded=1;whiteSpace=wrap;html=1;fillColor=#1ba1e2;fontColor=#ffffff;strokeColor=#006EAF;" parent="1" vertex="1">
          <mxGeometry x="614" y="595" width="56" height="30" as="geometry" />
        </mxCell>
        <mxCell id="M1DWvYW75hTVUkg5Gfjc-48" value="..." style="rounded=1;whiteSpace=wrap;html=1;fillColor=#1ba1e2;fontColor=#ffffff;strokeColor=#006EAF;" parent="1" vertex="1">
          <mxGeometry x="685" y="595" width="56" height="30" as="geometry" />
        </mxCell>
        <mxCell id="M1DWvYW75hTVUkg5Gfjc-49" value="" style="endArrow=classic;startArrow=classic;html=1;rounded=0;exitX=0.25;exitY=0;exitDx=0;exitDy=0;entryX=0.75;entryY=0.917;entryDx=0;entryDy=0;entryPerimeter=0;" parent="1" edge="1">
          <mxGeometry width="50" height="50" relative="1" as="geometry">
            <mxPoint x="270" y="465" as="sourcePoint" />
            <mxPoint x="280" y="435" as="targetPoint" />
          </mxGeometry>
        </mxCell>
        <mxCell id="M1DWvYW75hTVUkg5Gfjc-50" value="" style="endArrow=classic;startArrow=classic;html=1;rounded=0;entryX=0.25;entryY=0.917;entryDx=0;entryDy=0;entryPerimeter=0;exitX=0.25;exitY=0;exitDx=0;exitDy=0;" parent="1" edge="1">
          <mxGeometry width="50" height="50" relative="1" as="geometry">
            <mxPoint x="330" y="463.96000000000004" as="sourcePoint" />
            <mxPoint x="320" y="433.96000000000004" as="targetPoint" />
          </mxGeometry>
        </mxCell>
        <mxCell id="M1DWvYW75hTVUkg5Gfjc-51" value="Task Manager (Master API)" style="text;html=1;strokeColor=none;fillColor=none;align=center;verticalAlign=middle;whiteSpace=wrap;rounded=0;" parent="1" vertex="1">
          <mxGeometry x="255" y="526" width="90" height="30" as="geometry" />
        </mxCell>
        <mxCell id="M1DWvYW75hTVUkg5Gfjc-52" value="" style="endArrow=none;dashed=1;html=1;dashPattern=1 3;strokeWidth=2;rounded=0;" parent="1" edge="1">
          <mxGeometry width="50" height="50" relative="1" as="geometry">
            <mxPoint x="659" y="576" as="sourcePoint" />
            <mxPoint x="659" y="558" as="targetPoint" />
          </mxGeometry>
        </mxCell>
      </root>
    </mxGraphModel>
  </diagram>
</mxfile>
